<?xml version="1.0" encoding="UTF-8"?>
<svg width="121px" height="37px" viewBox="0 0 121 37" version="1.1" xmlns="http://www.w3.org/2000/svg" xmlns:xlink="http://www.w3.org/1999/xlink">
    <!-- Generator: Sketch 48.2 (47327) - http://www.bohemiancoding.com/sketch -->
    <title>Group Copy 2</title>
    <desc>Created with Sketch.</desc>
    <defs>
        <linearGradient x1="57.8947663%" y1="100%" x2="57.8947663%" y2="9.43095792%" id="linearGradient-1">
            <stop stop-color="#FBAA4C" offset="0%"></stop>
            <stop stop-color="#FBECAA" offset="100%"></stop>
        </linearGradient>
        <path d="M5.98320248,0.285322772 L113.909128,0.285322772 L113.925925,23.9999991 C113.92754,26.7614224 111.690274,29.0013078 108.928851,29.0029232 C108.927876,29.0029238 108.926901,29.002924 108.925926,29.002924 L1,29 L0.983203338,5.28532363 C0.98158796,2.52390035 3.21885431,0.28401496 5.98027758,0.282399582 C5.98125255,0.282399012 5.98222752,0.282398727 5.98320248,0.282398727 Z" id="path-2"></path>
        <filter x="-6.2%" y="-17.4%" width="112.4%" height="148.7%" filterUnits="objectBoundingBox" id="filter-3">
            <feOffset dx="0" dy="2" in="SourceAlpha" result="shadowOffsetOuter1"></feOffset>
            <feGaussianBlur stdDeviation="2" in="shadowOffsetOuter1" result="shadowBlurOuter1"></feGaussianBlur>
            <feComposite in="shadowBlurOuter1" in2="SourceAlpha" operator="out" result="shadowBlurOuter1"></feComposite>
            <feColorMatrix values="0 0 0 0 0   0 0 0 0 0   0 0 0 0 0  0 0 0 0.5 0" type="matrix" in="shadowBlurOuter1"></feColorMatrix>
        </filter>
        <linearGradient x1="32.1952105%" y1="102.292946%" x2="32.1952105%" y2="5.39302164%" id="linearGradient-4">
            <stop stop-color="#FFB153" offset="0%"></stop>
            <stop stop-color="#FFC253" offset="100%"></stop>
        </linearGradient>
        <path d="M7.00000005,4.00584135 L111.585635,4.00584135 L111.602431,23.0024145 C111.603697,24.6592683 110.261577,26.0034393 108.604723,26.0047045 C108.603959,26.0047051 108.603196,26.0047054 108.602432,26.0047054 L4.01679756,26.0024154 L4.00000092,7.00584223 C3.99873568,5.34898846 5.34085535,4.00481742 6.99770912,4.00355217 C6.99847276,4.00355159 6.9992364,4.0035513 7.00000005,4.0035513 Z" id="path-5"></path>
        <filter x="-0.2%" y="-1.1%" width="100.5%" height="102.3%" filterUnits="objectBoundingBox" id="filter-6">
            <feOffset dx="0" dy="-0.5" in="SourceAlpha" result="shadowOffsetInner1"></feOffset>
            <feComposite in="shadowOffsetInner1" in2="SourceAlpha" operator="arithmetic" k2="-1" k3="1" result="shadowInnerInner1"></feComposite>
            <feColorMatrix values="0 0 0 0 0.992156863   0 0 0 0 0.850980392   0 0 0 0 0.537254902  0 0 0 1 0" type="matrix" in="shadowInnerInner1" result="shadowMatrixInner1"></feColorMatrix>
            <feOffset dx="0" dy="0.5" in="SourceAlpha" result="shadowOffsetInner2"></feOffset>
            <feComposite in="shadowOffsetInner2" in2="SourceAlpha" operator="arithmetic" k2="-1" k3="1" result="shadowInnerInner2"></feComposite>
            <feColorMatrix values="0 0 0 0 0.976470588   0 0 0 0 0.588235294   0 0 0 0 0.298039216  0 0 0 1 0" type="matrix" in="shadowInnerInner2" result="shadowMatrixInner2"></feColorMatrix>
            <feOffset dx="0.5" dy="0" in="SourceAlpha" result="shadowOffsetInner3"></feOffset>
            <feComposite in="shadowOffsetInner3" in2="SourceAlpha" operator="arithmetic" k2="-1" k3="1" result="shadowInnerInner3"></feComposite>
            <feColorMatrix values="0 0 0 0 0.976470588   0 0 0 0 0.588235294   0 0 0 0 0.298039216  0 0 0 1 0" type="matrix" in="shadowInnerInner3" result="shadowMatrixInner3"></feColorMatrix>
            <feOffset dx="-0.5" dy="0" in="SourceAlpha" result="shadowOffsetInner4"></feOffset>
            <feComposite in="shadowOffsetInner4" in2="SourceAlpha" operator="arithmetic" k2="-1" k3="1" result="shadowInnerInner4"></feComposite>
            <feColorMatrix values="0 0 0 0 0.992156863   0 0 0 0 0.850980392   0 0 0 0 0.537254902  0 0 0 1 0" type="matrix" in="shadowInnerInner4" result="shadowMatrixInner4"></feColorMatrix>
            <feMerge>
                <feMergeNode in="shadowMatrixInner1"></feMergeNode>
                <feMergeNode in="shadowMatrixInner2"></feMergeNode>
                <feMergeNode in="shadowMatrixInner3"></feMergeNode>
                <feMergeNode in="shadowMatrixInner4"></feMergeNode>
            </feMerge>
        </filter>
        <rect id="path-7" x="0" y="0.538827334" width="106.289108" height="11.6463579"></rect>
        <filter x="-27.9%" y="-270.2%" width="155.8%" height="640.5%" filterUnits="objectBoundingBox" id="filter-9">
            <feGaussianBlur stdDeviation="7.34375" in="SourceGraphic"></feGaussianBlur>
        </filter>
    </defs>
    <g id="食之契约H5_CV结束_官方" stroke="none" stroke-width="1" fill="none" fill-rule="evenodd" transform="translate(-29.000000, -432.000000)">
        <g id="Group-Copy-2" transform="translate(32.000000, 434.000000)">
            <g id="Rectangle-23">
                <use fill="black" fill-opacity="1" filter="url(#filter-3)" xlink:href="#path-2"></use>
                <use fill="url(#linearGradient-1)" fill-rule="evenodd" xlink:href="#path-2"></use>
                <path stroke="#5F1616" stroke-width="0.5" d="M5.81500616,0.535322772 C3.26830539,0.623973564 1.23170107,2.71719075 1.23320328,5.28514656 L1.249823,28.7500068 L108.925926,28.752924 C108.927315,28.7529239 108.927315,28.7529239 108.928705,28.7529232 C111.552057,28.7513886 113.67746,26.6234975 113.675925,24.0001762 L113.659305,0.535322772 L5.81500616,0.535322772 Z"></path>
            </g>
            <g id="Rectangle-23">
                <use fill="url(#linearGradient-4)" fill-rule="evenodd" xlink:href="#path-5"></use>
                <use fill="black" fill-opacity="1" filter="url(#filter-6)" xlink:href="#path-5"></use>
            </g>
            <g id="Oval-3" transform="translate(4.777778, 14.037037)">
                <mask id="mask-8" fill="white">
                    <use xlink:href="#path-7"></use>
                </mask>
                <g id="Mask"></g>
                <ellipse fill="#FFA10A" opacity="0.47435462" filter="url(#filter-9)" mask="url(#mask-8)" cx="54.5808934" cy="0.538827334" rx="39.4993308" ry="4.07622525"></ellipse>
            </g>
            <path d="M27.2294999,17.9601827 L27.2294999,22.181403 C27.2294999,22.2657224 27.1892193,22.331596 27.108657,22.3790256 C27.0280947,22.4264553 26.8036745,22.5028687 26.4353897,22.6082679 C26.0671049,22.7136672 25.848439,22.7663661 25.7793856,22.7663661 C25.7103322,22.7663661 25.675806,22.724207 25.675806,22.6398876 L25.7103326,21.9758754 C25.7333504,21.5226585 25.7448591,21.1063375 25.7448591,20.7269001 L25.7448591,17.9601827 L24.0357959,17.9601827 C23.7020378,17.9601827 23.4603545,17.991802 23.3107388,18.0550416 L23,17.4068392 C23.2416869,17.4595389 23.5294051,17.4858883 23.8631632,17.4858883 L25.7448591,17.4858883 L25.7448591,12.4899871 C25.7448591,12.06839 25.727596,11.6573389 25.6930693,11.2568216 C26.4526568,11.4570803 27.0856368,11.6836853 27.5920284,11.9366436 L30.3886773,11.9366436 L30.3886773,9.80231877 L24.7781163,9.80231877 C24.467376,9.80231877 24.2256927,9.83920797 24.0530592,9.91298747 L23.7423204,9.28059492 C23.9840073,9.33329456 24.2717255,9.35964399 24.6054836,9.35964399 L36.0855547,9.35964399 L36.7415588,8.37943553 C36.83363,8.25295639 36.9199454,8.18971777 37.0005077,8.18971777 C37.08107,8.18971777 37.3141218,8.32936972 37.69967,8.60867783 C38.0852181,8.88798594 38.3729363,9.11195606 38.5628332,9.28059492 C38.7527301,9.44923377 38.8476771,9.57834596 38.8476771,9.66793536 C38.8476771,9.75752475 38.7095723,9.80231877 38.4333587,9.80231877 L31.9768977,9.80231877 L31.9768977,11.9366436 L34.669967,11.9366436 L35.1360751,11.4149198 C35.2166375,11.3306004 35.2914442,11.2884413 35.3604976,11.2884413 C35.4755866,11.2884413 35.7920766,11.438633 36.3099772,11.739021 C36.8278777,12.0394089 37.0868241,12.2449345 37.0868241,12.3556037 C37.0868241,12.466273 36.879667,12.6111948 36.4653465,12.7903736 L36.4653465,17.4858883 L36.8106118,17.4858883 L37.4838792,16.5372994 C37.5989682,16.3792005 37.6967924,16.3001522 37.7773547,16.3001522 C37.8924437,16.3001522 38.1801619,16.5109477 38.6405179,16.9325448 C39.1008739,17.3541419 39.3310485,17.6308109 39.3310485,17.76256 C39.3310485,17.8943091 39.2044525,17.9601827 38.9512567,17.9601827 L36.4653465,17.9601827 L36.4653465,20.568802 C36.4653465,21.0852585 36.4106801,21.4620553 36.3013455,21.6992037 C36.192011,21.936352 35.9042928,22.1840367 35.4381823,22.4422649 C34.9720718,22.7004932 34.6728449,22.8296053 34.5404925,22.8296053 C34.4081402,22.8296053 34.3304562,22.7558269 34.3074384,22.6082679 C34.238385,22.1655909 34.0427367,21.8046038 33.7204874,21.5252957 C33.3982382,21.2459876 32.7825213,20.9640487 31.8733181,20.6794707 L31.9423712,20.3316548 C33.2198591,20.5213735 34.0053298,20.6162314 34.2988068,20.6162314 C34.5922838,20.6162314 34.7706691,20.5925169 34.833968,20.5450872 C34.897267,20.4976576 34.928916,20.4265141 34.928916,20.3316548 L34.928916,17.9601827 L27.2294999,17.9601827 Z M34.928916,14.8140297 L34.928916,12.5057969 L31.9768977,12.5057969 L31.9768977,14.8140297 L34.928916,14.8140297 Z M27.2294999,12.5057969 L27.2294999,14.8140297 L30.3886773,14.8140297 L30.3886773,12.5057969 L27.2294999,12.5057969 Z M34.928916,17.4858883 L34.928916,15.3515634 L31.9768977,15.3515634 L31.9768977,17.4858883 L34.928916,17.4858883 Z M27.2294999,15.3515634 L27.2294999,17.4858883 L30.3886773,17.4858883 L30.3886773,15.3515634 L27.2294999,15.3515634 Z M49.4818482,10.039466 C51.2772367,9.63894869 52.9344935,9.12776983 54.4536684,8.50591404 C55.4089072,9.29640868 55.8865194,9.78123813 55.8865194,9.96041691 C55.8865194,10.0447363 55.8347301,10.0868954 55.73115,10.0868954 C55.6275699,10.0868954 55.4952196,10.0658159 55.3340949,10.0236562 C55.1729703,9.98149645 55.0319884,9.96041691 54.911145,9.96041691 C54.7903015,9.96041691 54.6665827,9.97095668 54.5399848,9.99203654 C52.6064894,10.2344549 50.8629171,10.4030912 49.3092155,10.4979506 C49.3322333,11.1514262 49.2977072,12.2686418 49.2056359,13.8496311 L53.7113481,13.8496311 L54.3328256,12.9010423 C54.401879,12.795643 54.4881945,12.7429441 54.5917746,12.7429441 C54.6953547,12.7429441 55.0291078,12.9484697 55.5930439,13.3595269 C56.1569801,13.7705841 56.4389439,14.0314434 56.4389439,14.1421127 C56.4389439,14.2527819 56.3353653,14.3081157 56.1282051,14.3081157 L53.314293,14.3081157 L53.314293,20.6320412 L53.3488195,22.1972128 C53.3488195,22.3236919 53.3229249,22.410645 53.2711348,22.4580747 C53.2193448,22.5055044 53.0150648,22.5924575 52.6582889,22.7189366 C52.301513,22.8454158 52.048321,22.9086544 51.8987053,22.9086544 C51.8296519,22.9086544 51.7951257,22.8506857 51.7951257,22.7347465 L51.7951257,14.3081157 L49.1883727,14.3081157 C49.0732837,16.7217593 48.7481621,18.4581865 48.2129982,19.5174494 C47.6778343,20.5767122 46.5068213,21.7229122 44.6999238,22.9560839 L44.5100279,22.687317 C45.6724269,21.5595447 46.4607748,20.5161074 46.8750952,19.5569739 C47.2894156,18.5978404 47.5512392,17.2250353 47.6605737,15.4385174 C47.7699083,13.6519995 47.8245748,12.3108137 47.8245748,11.4149198 C47.8245748,10.5190259 47.8188204,9.823401 47.8073115,9.32802436 C48.5668989,9.62314236 49.1250723,9.86028719 49.4818482,10.039466 Z M42.8527545,10.4505211 L44.3891851,10.4505211 L44.648134,10.0710856 C44.7517142,9.92352661 44.8725558,9.84974821 45.0106626,9.84974821 C45.1487694,9.84974821 45.3645581,9.92879649 45.658035,10.0868954 C45.951512,10.2449943 46.1701778,10.3635668 46.3140391,10.4426162 C46.4579004,10.5216657 46.5298299,10.600714 46.5298299,10.6797634 C46.5298299,10.7588129 46.3514446,10.9300842 45.9946687,11.1935824 L45.9946687,16.7112074 L46.0291952,18.1182808 C46.0291952,18.2131402 46.026318,18.2790138 46.0205636,18.3159035 C46.0148091,18.3527933 45.9313709,18.4292066 45.7702463,18.5451458 C45.6091216,18.661085 45.4077189,18.7585779 45.166032,18.8376274 C44.9243451,18.9166768 44.7747316,18.956201 44.7171871,18.956201 C44.6596426,18.956201 44.6308708,18.9035021 44.6308708,18.7981028 L44.6308708,17.5807472 L42.6110688,17.5807472 L42.6110688,18.9878206 C42.6110688,19.1142997 42.5391392,19.2276023 42.395278,19.3277316 C42.2514167,19.4278609 42.0356281,19.5385285 41.7479056,19.6597377 C41.460183,19.7809469 41.2789206,19.8415505 41.2041127,19.8415505 C41.1293049,19.8415505 41.0976559,19.7888517 41.1091648,19.6834524 C41.1667093,19.2618553 41.1954811,18.7401366 41.1954811,18.1182808 L41.1954811,11.0038646 C41.1954811,10.5611876 41.178218,10.1132474 41.1436913,9.66003045 C41.8227164,9.92352866 42.3923985,10.1870229 42.8527545,10.4505211 Z M44.6308708,17.0115939 L44.6308708,10.9406254 L42.6110688,10.9406254 L42.6110688,17.0115939 L44.6308708,17.0115939 Z M70.335872,14.4345942 L71.3198781,13.2330484 C71.457985,13.0644095 71.5788266,12.9800913 71.6824067,12.9800913 C71.7859868,12.9800913 72.1427574,13.2514904 72.7527291,13.7942968 C73.3627009,14.3371031 73.6676822,14.6664709 73.6676822,14.7824101 C73.6676822,14.8983493 73.5295774,14.9563181 73.2533638,14.9563181 L58.8730642,14.9563181 C58.5623239,14.9563181 58.3206406,14.9932073 58.1480071,15.0669868 L57.8027418,14.3555451 C58.0444287,14.4082448 58.3321469,14.4345942 58.6659051,14.4345942 L70.335872,14.4345942 Z M81.6260472,12.584846 C81.6145383,12.5953859 81.608784,12.6111956 81.608784,12.6322754 L81.608784,12.758754 L87.5818736,12.758754 L87.5818736,11.4939688 L81.6951003,11.4939688 C81.6720825,11.7996268 81.6548194,12.0525813 81.6433105,12.2528399 C81.6318016,12.3055396 81.6260472,12.3608733 81.6260472,12.418843 L81.6260472,12.584846 Z M78.6222391,11.1303431 C78.6107302,11.2357424 78.5733269,11.3385052 78.5100279,11.4386345 C78.446729,11.5387638 78.3719222,11.6283519 78.2856055,11.7074013 C78.1992887,11.7864508 78.1129733,11.8523244 78.0266565,11.905024 C77.9403398,11.9577237 77.8684102,11.9840731 77.8108657,11.9840731 C77.6842678,11.9840731 77.5950752,11.9577237 77.5432851,11.905024 C77.491495,11.8523244 77.4368286,11.7205772 77.3792841,11.5097787 C77.275704,11.1198013 77.1059502,10.7087503 76.8700178,10.2766132 C76.6340853,9.84447612 76.3204725,9.37545633 75.9291698,8.86953976 L76.1018025,8.67982199 C76.7117742,8.99601985 77.1922636,9.26741894 77.5432851,9.4940274 C77.8943066,9.72063587 78.153253,9.92352645 78.320132,10.1027052 C78.4870111,10.281884 78.5848353,10.4505203 78.6136075,10.6086193 C78.6423798,10.7667182 78.6452569,10.9406244 78.6222391,11.1303431 Z M88.0825083,14.9088886 L86.7532369,14.9088886 L86.7532369,16.8060663 L88.0825083,16.8060663 L88.0825083,14.9088886 Z M85.6311247,14.9088886 L84.4054329,14.9088886 L84.4054329,16.8060663 L85.6311247,16.8060663 L85.6311247,14.9088886 Z M83.2660574,14.9088886 L82.0748921,14.9088886 L82.0748921,16.8060663 L83.2660574,16.8060663 L83.2660574,14.9088886 Z M77.2066514,13.8654409 L75.7738005,13.8654409 C75.6472025,13.8654409 75.5206065,13.8733457 75.3940086,13.8891556 C75.2674107,13.9049655 75.1753409,13.92868 75.1177964,13.9602998 L74.8415842,13.3279072 C74.979691,13.359527 75.1034098,13.3806066 75.2127444,13.3911465 C75.3220789,13.4016864 75.4573065,13.4069563 75.6184311,13.4069563 L77.1030718,13.4069563 L77.6209698,12.758754 C77.7015321,12.6744345 77.7705845,12.6296405 77.828129,12.6243705 C77.8856735,12.6191006 77.9662346,12.6533548 78.0698147,12.7271343 C78.2769749,12.8746933 78.4438514,13.0064405 78.5704494,13.1223797 C78.6970473,13.2383189 78.8293976,13.370066 78.9675044,13.517625 C79.1171202,13.6757239 79.1660322,13.7890265 79.1142422,13.857536 C79.0624521,13.9260455 78.8178917,14.0235384 78.3805534,14.1500176 L76.7578065,16.7270172 L77.7072861,16.7270172 L78.0352881,16.2685326 C78.0928326,16.1842132 78.1417447,16.1394192 78.1820259,16.1341492 C78.222307,16.1288792 78.2884822,16.1578636 78.3805534,16.2211032 C78.5646959,16.3265025 78.725818,16.4239953 78.8639249,16.5135847 C79.0020317,16.6031741 79.1746626,16.7270164 79.3818228,16.8851154 C79.4163495,16.9167351 79.4508757,16.9509894 79.4854024,16.9878791 C79.5199291,17.0247689 79.5429465,17.0590231 79.5544554,17.0906429 C79.6119999,16.932544 79.6637892,16.7533679 79.7098248,16.5531093 C79.7558604,16.3528506 79.8018953,16.1420552 79.8479309,15.9207167 C79.8939665,15.6993782 79.9400015,15.4754081 79.9860371,15.2487996 C80.0320727,15.0221912 80.0781076,14.8087608 80.1241432,14.6085022 C80.1816877,14.3028442 80.2248454,13.9418571 80.2536177,13.5255299 C80.2823899,13.1092027 80.299653,12.6612625 80.3054075,12.1816957 C80.3111619,11.702129 80.3111619,11.19622 80.3054075,10.6639536 C80.299653,10.1316872 80.2910215,9.59679388 80.2795126,9.05925752 C80.578744,9.15411688 80.8233045,9.2542447 81.0132013,9.35964399 C81.2030982,9.46504327 81.4073781,9.61260006 81.6260472,9.80231877 C82.8690085,9.64421984 83.9853551,9.41497984 84.9751206,9.11459187 C85.9648861,8.81420391 86.8740756,8.442677 87.7027164,8 C87.9328944,8.21079857 88.1112797,8.40314938 88.2378776,8.5770582 C88.3644755,8.75096702 88.5025803,8.94331784 88.652196,9.15411641 C88.9169007,9.50193405 88.8305852,9.64422095 88.393247,9.58098138 C88.1515601,9.54936159 87.9616661,9.53618688 87.8235593,9.54145685 C87.6854525,9.54672681 87.5531021,9.55990152 87.4265042,9.58098138 C87.1617995,9.63368102 86.8165376,9.68901482 86.3907083,9.74698442 C85.964879,9.80495403 85.4958983,9.86555771 84.9837522,9.92879728 C84.4716061,9.99203685 83.9393275,10.0526405 83.3869002,10.1106101 C82.834473,10.1685797 82.2993171,10.2186437 81.7814166,10.2608034 C81.7583988,10.4821419 81.7411357,10.7350964 81.7296268,11.0196744 L87.4437675,11.0196744 L87.9961919,10.466331 C88.099772,10.3609317 88.2378768,10.3609317 88.4105103,10.466331 C88.6061616,10.5717302 88.7644066,10.6586833 88.8852501,10.7271929 C89.0060935,10.7957024 89.1528298,10.8879254 89.3254633,11.0038646 C89.4865879,11.1198038 89.5498859,11.248916 89.5153592,11.3912051 C89.4808325,11.5334941 89.3024472,11.6573364 88.980198,11.7627357 L88.980198,12.2686497 C88.980198,12.4056688 88.9830752,12.5426858 88.9888297,12.6797049 C88.9945841,12.816724 89.0032156,12.9590109 89.0147245,13.1065699 C89.0262335,13.2646688 88.9917073,13.3647966 88.911145,13.4069563 C88.7154936,13.5228955 88.5514943,13.6309282 88.4191419,13.7310575 C88.2867896,13.8311868 88.1112815,13.9181399 87.8926123,13.9919194 C87.8235589,14.0129993 87.7545066,14.0103643 87.6854532,13.9840145 C87.6163998,13.9576647 87.5818736,13.9023309 87.5818736,13.8180115 L87.5818736,13.2014287 L81.5569942,13.2014287 C81.5339764,13.3489877 81.5138361,13.4965445 81.4965727,13.6441035 C81.4793094,13.7916625 81.4649235,13.9076 81.4534146,13.9919194 C81.5569947,14.0340791 81.6893451,14.1052226 81.8504697,14.2053519 C82.0115943,14.3054812 82.149699,14.3871645 82.264788,14.450404 L87.8235593,14.450404 L88.1688246,14.0393489 C88.2608958,13.9339496 88.3385797,13.8865206 88.4018786,13.8970605 C88.4651776,13.9076005 88.5428615,13.9339499 88.6349327,13.9761096 C88.8420929,14.060429 89.0233554,14.1447472 89.1787256,14.2290666 C89.3340957,14.3133861 89.5038495,14.4135139 89.6879919,14.5294531 C89.9181699,14.6664722 90.0188713,14.856188 89.990099,15.0986064 C89.9613268,15.3410248 89.7512925,15.5412804 89.3599898,15.6993793 L89.3599898,19.0984893 C89.3599898,19.3830674 89.3484811,19.6123074 89.3254633,19.7862162 C89.3024455,19.960125 89.2564106,20.1024119 89.1873572,20.2130812 C89.1183038,20.3237504 89.0147252,20.4159734 88.8766184,20.4897529 C88.7385116,20.5635324 88.554372,20.6478506 88.324194,20.7427099 C88.0940159,20.8270293 87.9386481,20.8639185 87.8580858,20.8533786 C87.7775235,20.8428387 87.7314886,20.7532506 87.7199797,20.5846118 C87.7199797,20.4686726 87.7055938,20.3738146 87.6768215,20.3000351 C87.6480493,20.2262556 87.5905056,20.1603821 87.5041889,20.1024125 C87.4178721,20.0444429 87.2912761,19.991744 87.1243971,19.9443143 C86.957518,19.8968846 86.7302206,19.8415508 86.4424981,19.7783113 L86.4424981,19.5253543 C86.8222918,19.5464341 87.1215188,19.5543389 87.3401879,19.549069 C87.558857,19.543799 87.7228564,19.5200845 87.8321909,19.4779248 C87.9415255,19.4357651 88.0105778,19.3777964 88.0393501,19.3040169 C88.0681223,19.2302374 88.0825083,19.1301095 88.0825083,19.0036304 L88.0825083,17.2645509 L86.7532369,17.2645509 L86.7532369,17.9127532 C86.7532369,18.1446317 86.756114,18.3448873 86.7618685,18.5135262 C86.7676229,18.682165 86.7705001,18.8718809 86.7705001,19.0826795 C86.7705001,19.1986187 86.7359739,19.2618573 86.6669205,19.2723972 C86.5057959,19.3567167 86.3619368,19.4252252 86.2353389,19.4779248 C86.108741,19.5306245 85.9533732,19.5727835 85.7692308,19.6044033 C85.7001774,19.6254832 85.6512653,19.6281181 85.622493,19.6123082 C85.5937208,19.5964983 85.5850892,19.5464344 85.5965981,19.462115 C85.6196159,19.1353772 85.6311247,18.8534384 85.6311247,18.61629 L85.6311247,17.2645509 L84.4054329,17.2645509 L84.4054329,18.2921888 C84.4054329,18.5135273 84.40831,18.7137829 84.4140645,18.8929617 C84.4198189,19.0721405 84.4284505,19.2618564 84.4399594,19.462115 C84.4399594,19.5885941 84.3824157,19.6729123 84.2673267,19.715072 C84.1062021,19.7783116 83.9709746,19.8283755 83.86164,19.8652653 C83.7523055,19.902155 83.6055692,19.9416791 83.4214268,19.9838389 C83.3063378,20.0259986 83.2487941,19.9627599 83.2487941,19.7941211 L83.2487941,19.3672561 C83.2487941,19.240777 83.2516713,19.1222046 83.2574257,19.0115353 C83.2631802,18.9008661 83.2660574,18.7901985 83.2660574,18.6795292 L83.2660574,17.2645509 L82.0748921,17.2645509 L82.0748921,20.2209861 C82.0748921,20.3580051 82.0115941,20.4686727 81.8849962,20.5529922 C81.7583983,20.6162317 81.6202935,20.6715655 81.4706778,20.7189952 C81.3210621,20.7664249 81.1599399,20.8164888 80.9873064,20.8691884 C80.8837263,20.9008082 80.8376914,20.8481094 80.8492003,20.7110903 C80.8607092,20.5108316 80.8693408,20.3369254 80.8750952,20.1893664 C80.8808497,20.0418074 80.886604,19.8995205 80.8923585,19.7625015 C80.8981129,19.6254824 80.9009901,19.4911003 80.9009901,19.3593512 L80.9009901,15.1618456 C80.8089189,15.4675036 80.7053403,15.8021413 80.5902513,16.1657688 C80.4751623,16.5293964 80.3313032,16.9009233 80.1586697,17.2803607 C79.9860362,17.6597981 79.7846335,18.03396 79.5544554,18.4028575 C79.3242774,18.771755 79.0538223,19.1037577 78.743082,19.3988757 L78.5704494,19.3040169 C78.489887,19.5358953 78.3863085,19.77831 78.2597106,20.0312683 C78.5013975,20.2947665 78.9732554,20.5266415 79.6752983,20.7269001 C80.3773412,20.9271587 81.2462502,21.0694456 82.2820513,21.1537651 C82.7654251,21.1959248 83.2660548,21.2275441 83.7839553,21.248624 C84.3018559,21.2697038 84.8945553,21.2723388 85.5620716,21.2565289 C86.2295878,21.240719 86.9977954,21.2064647 87.8667174,21.1537651 C88.7356394,21.1010654 89.7627934,21.027287 90.9482102,20.9324277 L91,21.2011945 C90.6892597,21.3171337 90.4360677,21.4172616 90.2404163,21.501581 C90.044765,21.5859004 89.8951516,21.6702186 89.7915715,21.754538 C89.6879914,21.8388574 89.6131846,21.9284455 89.567149,22.0233048 C89.5211134,22.1181642 89.4865872,22.2341017 89.4635694,22.3711207 C89.4405516,22.4659801 89.3484818,22.5134091 89.1873572,22.5134091 C87.5646022,22.5134091 86.1605374,22.4975994 84.9751206,22.4659796 C83.7897038,22.4343598 82.8862687,22.3869309 82.264788,22.3236913 C81.8274498,22.2815316 81.4073812,22.2024833 81.0045697,22.0865441 C80.6017582,21.9706049 80.219093,21.828318 79.8565626,21.6596791 C79.4940322,21.4910403 79.1545247,21.3013244 78.83803,21.0905258 C78.5215352,20.8797273 78.2424485,20.663662 78.0007616,20.4423235 C77.6439857,20.9693199 77.2095312,21.4172601 76.6973851,21.7861576 C76.185239,22.1550551 75.5608905,22.5081374 74.8243209,22.8454152 L74.6516882,22.6082679 C75.1926066,22.2288305 75.6443242,21.8678434 76.0068545,21.5252957 C76.3693849,21.182748 76.671489,20.8085862 76.9131759,20.4027989 C77.1548628,19.9970117 77.3533884,19.5358967 77.5087586,19.0194402 C77.6641287,18.5029837 77.8051106,17.8811373 77.9317086,17.1538822 L76.5161208,17.1538822 L76.3607515,17.4068392 C76.2916981,17.5333184 76.1881195,17.6070967 76.0500127,17.6281766 C75.8543614,17.6176367 75.7133795,17.604462 75.6270627,17.5886521 C75.540746,17.5728422 75.4112728,17.5438578 75.2386392,17.5016981 C75.0775146,17.4595384 75.0372341,17.3752202 75.1177964,17.2487411 C75.278921,17.0484824 75.437166,16.8245123 75.5925362,16.576824 C75.7479063,16.3291357 75.9176601,16.0524667 76.1018025,15.7468088 L77.2066514,13.8654409 Z M79.5026657,17.2329313 C79.4451211,17.2856309 79.3760688,17.3172502 79.2955065,17.3277901 C79.2149442,17.3594099 79.148769,17.4226485 79.0969789,17.5175079 C79.0451889,17.6123673 78.9847681,17.7810036 78.9157146,18.0234219 C78.8581701,18.2342205 78.8035037,18.442381 78.7517136,18.6479096 C78.6999236,18.8534382 78.6452571,19.045789 78.5877126,19.2249678 C78.7948728,18.8560703 78.9703809,18.5108928 79.1142422,18.189425 C79.2581035,17.8679572 79.3875766,17.5491291 79.5026657,17.2329313 Z" id="再听一遍" stroke="#5F1616" fill="#FFFFFF" stroke-linecap="round" stroke-linejoin="round"></path>
            <path d="M27.2294999,17.9601827 L27.2294999,22.181403 C27.2294999,22.2657224 27.1892193,22.331596 27.108657,22.3790256 C27.0280947,22.4264553 26.8036745,22.5028687 26.4353897,22.6082679 C26.0671049,22.7136672 25.848439,22.7663661 25.7793856,22.7663661 C25.7103322,22.7663661 25.675806,22.724207 25.675806,22.6398876 L25.7103326,21.9758754 C25.7333504,21.5226585 25.7448591,21.1063375 25.7448591,20.7269001 L25.7448591,17.9601827 L24.0357959,17.9601827 C23.7020378,17.9601827 23.4603545,17.991802 23.3107388,18.0550416 L23,17.4068392 C23.2416869,17.4595389 23.5294051,17.4858883 23.8631632,17.4858883 L25.7448591,17.4858883 L25.7448591,12.4899871 C25.7448591,12.06839 25.727596,11.6573389 25.6930693,11.2568216 C26.4526568,11.4570803 27.0856368,11.6836853 27.5920284,11.9366436 L30.3886773,11.9366436 L30.3886773,9.80231877 L24.7781163,9.80231877 C24.467376,9.80231877 24.2256927,9.83920797 24.0530592,9.91298747 L23.7423204,9.28059492 C23.9840073,9.33329456 24.2717255,9.35964399 24.6054836,9.35964399 L36.0855547,9.35964399 L36.7415588,8.37943553 C36.83363,8.25295639 36.9199454,8.18971777 37.0005077,8.18971777 C37.08107,8.18971777 37.3141218,8.32936972 37.69967,8.60867783 C38.0852181,8.88798594 38.3729363,9.11195606 38.5628332,9.28059492 C38.7527301,9.44923377 38.8476771,9.57834596 38.8476771,9.66793536 C38.8476771,9.75752475 38.7095723,9.80231877 38.4333587,9.80231877 L31.9768977,9.80231877 L31.9768977,11.9366436 L34.669967,11.9366436 L35.1360751,11.4149198 C35.2166375,11.3306004 35.2914442,11.2884413 35.3604976,11.2884413 C35.4755866,11.2884413 35.7920766,11.438633 36.3099772,11.739021 C36.8278777,12.0394089 37.0868241,12.2449345 37.0868241,12.3556037 C37.0868241,12.466273 36.879667,12.6111948 36.4653465,12.7903736 L36.4653465,17.4858883 L36.8106118,17.4858883 L37.4838792,16.5372994 C37.5989682,16.3792005 37.6967924,16.3001522 37.7773547,16.3001522 C37.8924437,16.3001522 38.1801619,16.5109477 38.6405179,16.9325448 C39.1008739,17.3541419 39.3310485,17.6308109 39.3310485,17.76256 C39.3310485,17.8943091 39.2044525,17.9601827 38.9512567,17.9601827 L36.4653465,17.9601827 L36.4653465,20.568802 C36.4653465,21.0852585 36.4106801,21.4620553 36.3013455,21.6992037 C36.192011,21.936352 35.9042928,22.1840367 35.4381823,22.4422649 C34.9720718,22.7004932 34.6728449,22.8296053 34.5404925,22.8296053 C34.4081402,22.8296053 34.3304562,22.7558269 34.3074384,22.6082679 C34.238385,22.1655909 34.0427367,21.8046038 33.7204874,21.5252957 C33.3982382,21.2459876 32.7825213,20.9640487 31.8733181,20.6794707 L31.9423712,20.3316548 C33.2198591,20.5213735 34.0053298,20.6162314 34.2988068,20.6162314 C34.5922838,20.6162314 34.7706691,20.5925169 34.833968,20.5450872 C34.897267,20.4976576 34.928916,20.4265141 34.928916,20.3316548 L34.928916,17.9601827 L27.2294999,17.9601827 Z M34.928916,14.8140297 L34.928916,12.5057969 L31.9768977,12.5057969 L31.9768977,14.8140297 L34.928916,14.8140297 Z M27.2294999,12.5057969 L27.2294999,14.8140297 L30.3886773,14.8140297 L30.3886773,12.5057969 L27.2294999,12.5057969 Z M34.928916,17.4858883 L34.928916,15.3515634 L31.9768977,15.3515634 L31.9768977,17.4858883 L34.928916,17.4858883 Z M27.2294999,15.3515634 L27.2294999,17.4858883 L30.3886773,17.4858883 L30.3886773,15.3515634 L27.2294999,15.3515634 Z M49.4818482,10.039466 C51.2772367,9.63894869 52.9344935,9.12776983 54.4536684,8.50591404 C55.4089072,9.29640868 55.8865194,9.78123813 55.8865194,9.96041691 C55.8865194,10.0447363 55.8347301,10.0868954 55.73115,10.0868954 C55.6275699,10.0868954 55.4952196,10.0658159 55.3340949,10.0236562 C55.1729703,9.98149645 55.0319884,9.96041691 54.911145,9.96041691 C54.7903015,9.96041691 54.6665827,9.97095668 54.5399848,9.99203654 C52.6064894,10.2344549 50.8629171,10.4030912 49.3092155,10.4979506 C49.3322333,11.1514262 49.2977072,12.2686418 49.2056359,13.8496311 L53.7113481,13.8496311 L54.3328256,12.9010423 C54.401879,12.795643 54.4881945,12.7429441 54.5917746,12.7429441 C54.6953547,12.7429441 55.0291078,12.9484697 55.5930439,13.3595269 C56.1569801,13.7705841 56.4389439,14.0314434 56.4389439,14.1421127 C56.4389439,14.2527819 56.3353653,14.3081157 56.1282051,14.3081157 L53.314293,14.3081157 L53.314293,20.6320412 L53.3488195,22.1972128 C53.3488195,22.3236919 53.3229249,22.410645 53.2711348,22.4580747 C53.2193448,22.5055044 53.0150648,22.5924575 52.6582889,22.7189366 C52.301513,22.8454158 52.048321,22.9086544 51.8987053,22.9086544 C51.8296519,22.9086544 51.7951257,22.8506857 51.7951257,22.7347465 L51.7951257,14.3081157 L49.1883727,14.3081157 C49.0732837,16.7217593 48.7481621,18.4581865 48.2129982,19.5174494 C47.6778343,20.5767122 46.5068213,21.7229122 44.6999238,22.9560839 L44.5100279,22.687317 C45.6724269,21.5595447 46.4607748,20.5161074 46.8750952,19.5569739 C47.2894156,18.5978404 47.5512392,17.2250353 47.6605737,15.4385174 C47.7699083,13.6519995 47.8245748,12.3108137 47.8245748,11.4149198 C47.8245748,10.5190259 47.8188204,9.823401 47.8073115,9.32802436 C48.5668989,9.62314236 49.1250723,9.86028719 49.4818482,10.039466 Z M42.8527545,10.4505211 L44.3891851,10.4505211 L44.648134,10.0710856 C44.7517142,9.92352661 44.8725558,9.84974821 45.0106626,9.84974821 C45.1487694,9.84974821 45.3645581,9.92879649 45.658035,10.0868954 C45.951512,10.2449943 46.1701778,10.3635668 46.3140391,10.4426162 C46.4579004,10.5216657 46.5298299,10.600714 46.5298299,10.6797634 C46.5298299,10.7588129 46.3514446,10.9300842 45.9946687,11.1935824 L45.9946687,16.7112074 L46.0291952,18.1182808 C46.0291952,18.2131402 46.026318,18.2790138 46.0205636,18.3159035 C46.0148091,18.3527933 45.9313709,18.4292066 45.7702463,18.5451458 C45.6091216,18.661085 45.4077189,18.7585779 45.166032,18.8376274 C44.9243451,18.9166768 44.7747316,18.956201 44.7171871,18.956201 C44.6596426,18.956201 44.6308708,18.9035021 44.6308708,18.7981028 L44.6308708,17.5807472 L42.6110688,17.5807472 L42.6110688,18.9878206 C42.6110688,19.1142997 42.5391392,19.2276023 42.395278,19.3277316 C42.2514167,19.4278609 42.0356281,19.5385285 41.7479056,19.6597377 C41.460183,19.7809469 41.2789206,19.8415505 41.2041127,19.8415505 C41.1293049,19.8415505 41.0976559,19.7888517 41.1091648,19.6834524 C41.1667093,19.2618553 41.1954811,18.7401366 41.1954811,18.1182808 L41.1954811,11.0038646 C41.1954811,10.5611876 41.178218,10.1132474 41.1436913,9.66003045 C41.8227164,9.92352866 42.3923985,10.1870229 42.8527545,10.4505211 Z M44.6308708,17.0115939 L44.6308708,10.9406254 L42.6110688,10.9406254 L42.6110688,17.0115939 L44.6308708,17.0115939 Z M70.335872,14.4345942 L71.3198781,13.2330484 C71.457985,13.0644095 71.5788266,12.9800913 71.6824067,12.9800913 C71.7859868,12.9800913 72.1427574,13.2514904 72.7527291,13.7942968 C73.3627009,14.3371031 73.6676822,14.6664709 73.6676822,14.7824101 C73.6676822,14.8983493 73.5295774,14.9563181 73.2533638,14.9563181 L58.8730642,14.9563181 C58.5623239,14.9563181 58.3206406,14.9932073 58.1480071,15.0669868 L57.8027418,14.3555451 C58.0444287,14.4082448 58.3321469,14.4345942 58.6659051,14.4345942 L70.335872,14.4345942 Z M81.6260472,12.584846 C81.6145383,12.5953859 81.608784,12.6111956 81.608784,12.6322754 L81.608784,12.758754 L87.5818736,12.758754 L87.5818736,11.4939688 L81.6951003,11.4939688 C81.6720825,11.7996268 81.6548194,12.0525813 81.6433105,12.2528399 C81.6318016,12.3055396 81.6260472,12.3608733 81.6260472,12.418843 L81.6260472,12.584846 Z M78.6222391,11.1303431 C78.6107302,11.2357424 78.5733269,11.3385052 78.5100279,11.4386345 C78.446729,11.5387638 78.3719222,11.6283519 78.2856055,11.7074013 C78.1992887,11.7864508 78.1129733,11.8523244 78.0266565,11.905024 C77.9403398,11.9577237 77.8684102,11.9840731 77.8108657,11.9840731 C77.6842678,11.9840731 77.5950752,11.9577237 77.5432851,11.905024 C77.491495,11.8523244 77.4368286,11.7205772 77.3792841,11.5097787 C77.275704,11.1198013 77.1059502,10.7087503 76.8700178,10.2766132 C76.6340853,9.84447612 76.3204725,9.37545633 75.9291698,8.86953976 L76.1018025,8.67982199 C76.7117742,8.99601985 77.1922636,9.26741894 77.5432851,9.4940274 C77.8943066,9.72063587 78.153253,9.92352645 78.320132,10.1027052 C78.4870111,10.281884 78.5848353,10.4505203 78.6136075,10.6086193 C78.6423798,10.7667182 78.6452569,10.9406244 78.6222391,11.1303431 Z M88.0825083,14.9088886 L86.7532369,14.9088886 L86.7532369,16.8060663 L88.0825083,16.8060663 L88.0825083,14.9088886 Z M85.6311247,14.9088886 L84.4054329,14.9088886 L84.4054329,16.8060663 L85.6311247,16.8060663 L85.6311247,14.9088886 Z M83.2660574,14.9088886 L82.0748921,14.9088886 L82.0748921,16.8060663 L83.2660574,16.8060663 L83.2660574,14.9088886 Z M77.2066514,13.8654409 L75.7738005,13.8654409 C75.6472025,13.8654409 75.5206065,13.8733457 75.3940086,13.8891556 C75.2674107,13.9049655 75.1753409,13.92868 75.1177964,13.9602998 L74.8415842,13.3279072 C74.979691,13.359527 75.1034098,13.3806066 75.2127444,13.3911465 C75.3220789,13.4016864 75.4573065,13.4069563 75.6184311,13.4069563 L77.1030718,13.4069563 L77.6209698,12.758754 C77.7015321,12.6744345 77.7705845,12.6296405 77.828129,12.6243705 C77.8856735,12.6191006 77.9662346,12.6533548 78.0698147,12.7271343 C78.2769749,12.8746933 78.4438514,13.0064405 78.5704494,13.1223797 C78.6970473,13.2383189 78.8293976,13.370066 78.9675044,13.517625 C79.1171202,13.6757239 79.1660322,13.7890265 79.1142422,13.857536 C79.0624521,13.9260455 78.8178917,14.0235384 78.3805534,14.1500176 L76.7578065,16.7270172 L77.7072861,16.7270172 L78.0352881,16.2685326 C78.0928326,16.1842132 78.1417447,16.1394192 78.1820259,16.1341492 C78.222307,16.1288792 78.2884822,16.1578636 78.3805534,16.2211032 C78.5646959,16.3265025 78.725818,16.4239953 78.8639249,16.5135847 C79.0020317,16.6031741 79.1746626,16.7270164 79.3818228,16.8851154 C79.4163495,16.9167351 79.4508757,16.9509894 79.4854024,16.9878791 C79.5199291,17.0247689 79.5429465,17.0590231 79.5544554,17.0906429 C79.6119999,16.932544 79.6637892,16.7533679 79.7098248,16.5531093 C79.7558604,16.3528506 79.8018953,16.1420552 79.8479309,15.9207167 C79.8939665,15.6993782 79.9400015,15.4754081 79.9860371,15.2487996 C80.0320727,15.0221912 80.0781076,14.8087608 80.1241432,14.6085022 C80.1816877,14.3028442 80.2248454,13.9418571 80.2536177,13.5255299 C80.2823899,13.1092027 80.299653,12.6612625 80.3054075,12.1816957 C80.3111619,11.702129 80.3111619,11.19622 80.3054075,10.6639536 C80.299653,10.1316872 80.2910215,9.59679388 80.2795126,9.05925752 C80.578744,9.15411688 80.8233045,9.2542447 81.0132013,9.35964399 C81.2030982,9.46504327 81.4073781,9.61260006 81.6260472,9.80231877 C82.8690085,9.64421984 83.9853551,9.41497984 84.9751206,9.11459187 C85.9648861,8.81420391 86.8740756,8.442677 87.7027164,8 C87.9328944,8.21079857 88.1112797,8.40314938 88.2378776,8.5770582 C88.3644755,8.75096702 88.5025803,8.94331784 88.652196,9.15411641 C88.9169007,9.50193405 88.8305852,9.64422095 88.393247,9.58098138 C88.1515601,9.54936159 87.9616661,9.53618688 87.8235593,9.54145685 C87.6854525,9.54672681 87.5531021,9.55990152 87.4265042,9.58098138 C87.1617995,9.63368102 86.8165376,9.68901482 86.3907083,9.74698442 C85.964879,9.80495403 85.4958983,9.86555771 84.9837522,9.92879728 C84.4716061,9.99203685 83.9393275,10.0526405 83.3869002,10.1106101 C82.834473,10.1685797 82.2993171,10.2186437 81.7814166,10.2608034 C81.7583988,10.4821419 81.7411357,10.7350964 81.7296268,11.0196744 L87.4437675,11.0196744 L87.9961919,10.466331 C88.099772,10.3609317 88.2378768,10.3609317 88.4105103,10.466331 C88.6061616,10.5717302 88.7644066,10.6586833 88.8852501,10.7271929 C89.0060935,10.7957024 89.1528298,10.8879254 89.3254633,11.0038646 C89.4865879,11.1198038 89.5498859,11.248916 89.5153592,11.3912051 C89.4808325,11.5334941 89.3024472,11.6573364 88.980198,11.7627357 L88.980198,12.2686497 C88.980198,12.4056688 88.9830752,12.5426858 88.9888297,12.6797049 C88.9945841,12.816724 89.0032156,12.9590109 89.0147245,13.1065699 C89.0262335,13.2646688 88.9917073,13.3647966 88.911145,13.4069563 C88.7154936,13.5228955 88.5514943,13.6309282 88.4191419,13.7310575 C88.2867896,13.8311868 88.1112815,13.9181399 87.8926123,13.9919194 C87.8235589,14.0129993 87.7545066,14.0103643 87.6854532,13.9840145 C87.6163998,13.9576647 87.5818736,13.9023309 87.5818736,13.8180115 L87.5818736,13.2014287 L81.5569942,13.2014287 C81.5339764,13.3489877 81.5138361,13.4965445 81.4965727,13.6441035 C81.4793094,13.7916625 81.4649235,13.9076 81.4534146,13.9919194 C81.5569947,14.0340791 81.6893451,14.1052226 81.8504697,14.2053519 C82.0115943,14.3054812 82.149699,14.3871645 82.264788,14.450404 L87.8235593,14.450404 L88.1688246,14.0393489 C88.2608958,13.9339496 88.3385797,13.8865206 88.4018786,13.8970605 C88.4651776,13.9076005 88.5428615,13.9339499 88.6349327,13.9761096 C88.8420929,14.060429 89.0233554,14.1447472 89.1787256,14.2290666 C89.3340957,14.3133861 89.5038495,14.4135139 89.6879919,14.5294531 C89.9181699,14.6664722 90.0188713,14.856188 89.990099,15.0986064 C89.9613268,15.3410248 89.7512925,15.5412804 89.3599898,15.6993793 L89.3599898,19.0984893 C89.3599898,19.3830674 89.3484811,19.6123074 89.3254633,19.7862162 C89.3024455,19.960125 89.2564106,20.1024119 89.1873572,20.2130812 C89.1183038,20.3237504 89.0147252,20.4159734 88.8766184,20.4897529 C88.7385116,20.5635324 88.554372,20.6478506 88.324194,20.7427099 C88.0940159,20.8270293 87.9386481,20.8639185 87.8580858,20.8533786 C87.7775235,20.8428387 87.7314886,20.7532506 87.7199797,20.5846118 C87.7199797,20.4686726 87.7055938,20.3738146 87.6768215,20.3000351 C87.6480493,20.2262556 87.5905056,20.1603821 87.5041889,20.1024125 C87.4178721,20.0444429 87.2912761,19.991744 87.1243971,19.9443143 C86.957518,19.8968846 86.7302206,19.8415508 86.4424981,19.7783113 L86.4424981,19.5253543 C86.8222918,19.5464341 87.1215188,19.5543389 87.3401879,19.549069 C87.558857,19.543799 87.7228564,19.5200845 87.8321909,19.4779248 C87.9415255,19.4357651 88.0105778,19.3777964 88.0393501,19.3040169 C88.0681223,19.2302374 88.0825083,19.1301095 88.0825083,19.0036304 L88.0825083,17.2645509 L86.7532369,17.2645509 L86.7532369,17.9127532 C86.7532369,18.1446317 86.756114,18.3448873 86.7618685,18.5135262 C86.7676229,18.682165 86.7705001,18.8718809 86.7705001,19.0826795 C86.7705001,19.1986187 86.7359739,19.2618573 86.6669205,19.2723972 C86.5057959,19.3567167 86.3619368,19.4252252 86.2353389,19.4779248 C86.108741,19.5306245 85.9533732,19.5727835 85.7692308,19.6044033 C85.7001774,19.6254832 85.6512653,19.6281181 85.622493,19.6123082 C85.5937208,19.5964983 85.5850892,19.5464344 85.5965981,19.462115 C85.6196159,19.1353772 85.6311247,18.8534384 85.6311247,18.61629 L85.6311247,17.2645509 L84.4054329,17.2645509 L84.4054329,18.2921888 C84.4054329,18.5135273 84.40831,18.7137829 84.4140645,18.8929617 C84.4198189,19.0721405 84.4284505,19.2618564 84.4399594,19.462115 C84.4399594,19.5885941 84.3824157,19.6729123 84.2673267,19.715072 C84.1062021,19.7783116 83.9709746,19.8283755 83.86164,19.8652653 C83.7523055,19.902155 83.6055692,19.9416791 83.4214268,19.9838389 C83.3063378,20.0259986 83.2487941,19.9627599 83.2487941,19.7941211 L83.2487941,19.3672561 C83.2487941,19.240777 83.2516713,19.1222046 83.2574257,19.0115353 C83.2631802,18.9008661 83.2660574,18.7901985 83.2660574,18.6795292 L83.2660574,17.2645509 L82.0748921,17.2645509 L82.0748921,20.2209861 C82.0748921,20.3580051 82.0115941,20.4686727 81.8849962,20.5529922 C81.7583983,20.6162317 81.6202935,20.6715655 81.4706778,20.7189952 C81.3210621,20.7664249 81.1599399,20.8164888 80.9873064,20.8691884 C80.8837263,20.9008082 80.8376914,20.8481094 80.8492003,20.7110903 C80.8607092,20.5108316 80.8693408,20.3369254 80.8750952,20.1893664 C80.8808497,20.0418074 80.886604,19.8995205 80.8923585,19.7625015 C80.8981129,19.6254824 80.9009901,19.4911003 80.9009901,19.3593512 L80.9009901,15.1618456 C80.8089189,15.4675036 80.7053403,15.8021413 80.5902513,16.1657688 C80.4751623,16.5293964 80.3313032,16.9009233 80.1586697,17.2803607 C79.9860362,17.6597981 79.7846335,18.03396 79.5544554,18.4028575 C79.3242774,18.771755 79.0538223,19.1037577 78.743082,19.3988757 L78.5704494,19.3040169 C78.489887,19.5358953 78.3863085,19.77831 78.2597106,20.0312683 C78.5013975,20.2947665 78.9732554,20.5266415 79.6752983,20.7269001 C80.3773412,20.9271587 81.2462502,21.0694456 82.2820513,21.1537651 C82.7654251,21.1959248 83.2660548,21.2275441 83.7839553,21.248624 C84.3018559,21.2697038 84.8945553,21.2723388 85.5620716,21.2565289 C86.2295878,21.240719 86.9977954,21.2064647 87.8667174,21.1537651 C88.7356394,21.1010654 89.7627934,21.027287 90.9482102,20.9324277 L91,21.2011945 C90.6892597,21.3171337 90.4360677,21.4172616 90.2404163,21.501581 C90.044765,21.5859004 89.8951516,21.6702186 89.7915715,21.754538 C89.6879914,21.8388574 89.6131846,21.9284455 89.567149,22.0233048 C89.5211134,22.1181642 89.4865872,22.2341017 89.4635694,22.3711207 C89.4405516,22.4659801 89.3484818,22.5134091 89.1873572,22.5134091 C87.5646022,22.5134091 86.1605374,22.4975994 84.9751206,22.4659796 C83.7897038,22.4343598 82.8862687,22.3869309 82.264788,22.3236913 C81.8274498,22.2815316 81.4073812,22.2024833 81.0045697,22.0865441 C80.6017582,21.9706049 80.219093,21.828318 79.8565626,21.6596791 C79.4940322,21.4910403 79.1545247,21.3013244 78.83803,21.0905258 C78.5215352,20.8797273 78.2424485,20.663662 78.0007616,20.4423235 C77.6439857,20.9693199 77.2095312,21.4172601 76.6973851,21.7861576 C76.185239,22.1550551 75.5608905,22.5081374 74.8243209,22.8454152 L74.6516882,22.6082679 C75.1926066,22.2288305 75.6443242,21.8678434 76.0068545,21.5252957 C76.3693849,21.182748 76.671489,20.8085862 76.9131759,20.4027989 C77.1548628,19.9970117 77.3533884,19.5358967 77.5087586,19.0194402 C77.6641287,18.5029837 77.8051106,17.8811373 77.9317086,17.1538822 L76.5161208,17.1538822 L76.3607515,17.4068392 C76.2916981,17.5333184 76.1881195,17.6070967 76.0500127,17.6281766 C75.8543614,17.6176367 75.7133795,17.604462 75.6270627,17.5886521 C75.540746,17.5728422 75.4112728,17.5438578 75.2386392,17.5016981 C75.0775146,17.4595384 75.0372341,17.3752202 75.1177964,17.2487411 C75.278921,17.0484824 75.437166,16.8245123 75.5925362,16.576824 C75.7479063,16.3291357 75.9176601,16.0524667 76.1018025,15.7468088 L77.2066514,13.8654409 Z M79.5026657,17.2329313 C79.4451211,17.2856309 79.3760688,17.3172502 79.2955065,17.3277901 C79.2149442,17.3594099 79.148769,17.4226485 79.0969789,17.5175079 C79.0451889,17.6123673 78.9847681,17.7810036 78.9157146,18.0234219 C78.8581701,18.2342205 78.8035037,18.442381 78.7517136,18.6479096 C78.6999236,18.8534382 78.6452571,19.045789 78.5877126,19.2249678 C78.7948728,18.8560703 78.9703809,18.5108928 79.1142422,18.189425 C79.2581035,17.8679572 79.3875766,17.5491291 79.5026657,17.2329313 Z" id="再听一遍" fill="#FFFFFF"></path>
        </g>
    </g>
</svg>