<?xml version="1.0" encoding="UTF-8"?>
<svg width="121px" height="37px" viewBox="0 0 121 37" version="1.1" xmlns="http://www.w3.org/2000/svg" xmlns:xlink="http://www.w3.org/1999/xlink">
    <!-- Generator: Sketch 48.2 (47327) - http://www.bohemiancoding.com/sketch -->
    <title>Group Copy</title>
    <desc>Created with Sketch.</desc>
    <defs>
        <linearGradient x1="57.8947663%" y1="100%" x2="57.8947663%" y2="9.43095792%" id="linearGradient-1">
            <stop stop-color="#FBAA4C" offset="0%"></stop>
            <stop stop-color="#FBECAA" offset="100%"></stop>
        </linearGradient>
        <path d="M5.98320248,0.285322772 L113.909128,0.285322772 L113.925925,23.9999991 C113.92754,26.7614224 111.690274,29.0013078 108.928851,29.0029232 C108.927876,29.0029238 108.926901,29.002924 108.925926,29.002924 L1,29 L0.983203338,5.28532363 C0.98158796,2.52390035 3.21885431,0.28401496 5.98027758,0.282399582 C5.98125255,0.282399012 5.98222752,0.282398727 5.98320248,0.282398727 Z" id="path-2"></path>
        <filter x="-6.2%" y="-17.4%" width="112.4%" height="148.7%" filterUnits="objectBoundingBox" id="filter-3">
            <feOffset dx="0" dy="2" in="SourceAlpha" result="shadowOffsetOuter1"></feOffset>
            <feGaussianBlur stdDeviation="2" in="shadowOffsetOuter1" result="shadowBlurOuter1"></feGaussianBlur>
            <feComposite in="shadowBlurOuter1" in2="SourceAlpha" operator="out" result="shadowBlurOuter1"></feComposite>
            <feColorMatrix values="0 0 0 0 0   0 0 0 0 0   0 0 0 0 0  0 0 0 0.5 0" type="matrix" in="shadowBlurOuter1"></feColorMatrix>
        </filter>
        <linearGradient x1="32.1952105%" y1="102.292946%" x2="32.1952105%" y2="5.39302164%" id="linearGradient-4">
            <stop stop-color="#FFB153" offset="0%"></stop>
            <stop stop-color="#FFC253" offset="100%"></stop>
        </linearGradient>
        <path d="M7.00000005,4.00584135 L111.585635,4.00584135 L111.602431,23.0024145 C111.603697,24.6592683 110.261577,26.0034393 108.604723,26.0047045 C108.603959,26.0047051 108.603196,26.0047054 108.602432,26.0047054 L4.01679756,26.0024154 L4.00000092,7.00584223 C3.99873568,5.34898846 5.34085535,4.00481742 6.99770912,4.00355217 C6.99847276,4.00355159 6.9992364,4.0035513 7.00000005,4.0035513 Z" id="path-5"></path>
        <filter x="-0.2%" y="-1.1%" width="100.5%" height="102.3%" filterUnits="objectBoundingBox" id="filter-6">
            <feOffset dx="0" dy="-0.5" in="SourceAlpha" result="shadowOffsetInner1"></feOffset>
            <feComposite in="shadowOffsetInner1" in2="SourceAlpha" operator="arithmetic" k2="-1" k3="1" result="shadowInnerInner1"></feComposite>
            <feColorMatrix values="0 0 0 0 0.992156863   0 0 0 0 0.850980392   0 0 0 0 0.537254902  0 0 0 1 0" type="matrix" in="shadowInnerInner1" result="shadowMatrixInner1"></feColorMatrix>
            <feOffset dx="0" dy="0.5" in="SourceAlpha" result="shadowOffsetInner2"></feOffset>
            <feComposite in="shadowOffsetInner2" in2="SourceAlpha" operator="arithmetic" k2="-1" k3="1" result="shadowInnerInner2"></feComposite>
            <feColorMatrix values="0 0 0 0 0.976470588   0 0 0 0 0.588235294   0 0 0 0 0.298039216  0 0 0 1 0" type="matrix" in="shadowInnerInner2" result="shadowMatrixInner2"></feColorMatrix>
            <feOffset dx="0.5" dy="0" in="SourceAlpha" result="shadowOffsetInner3"></feOffset>
            <feComposite in="shadowOffsetInner3" in2="SourceAlpha" operator="arithmetic" k2="-1" k3="1" result="shadowInnerInner3"></feComposite>
            <feColorMatrix values="0 0 0 0 0.976470588   0 0 0 0 0.588235294   0 0 0 0 0.298039216  0 0 0 1 0" type="matrix" in="shadowInnerInner3" result="shadowMatrixInner3"></feColorMatrix>
            <feOffset dx="-0.5" dy="0" in="SourceAlpha" result="shadowOffsetInner4"></feOffset>
            <feComposite in="shadowOffsetInner4" in2="SourceAlpha" operator="arithmetic" k2="-1" k3="1" result="shadowInnerInner4"></feComposite>
            <feColorMatrix values="0 0 0 0 0.992156863   0 0 0 0 0.850980392   0 0 0 0 0.537254902  0 0 0 1 0" type="matrix" in="shadowInnerInner4" result="shadowMatrixInner4"></feColorMatrix>
            <feMerge>
                <feMergeNode in="shadowMatrixInner1"></feMergeNode>
                <feMergeNode in="shadowMatrixInner2"></feMergeNode>
                <feMergeNode in="shadowMatrixInner3"></feMergeNode>
                <feMergeNode in="shadowMatrixInner4"></feMergeNode>
            </feMerge>
        </filter>
        <rect id="path-7" x="0" y="0.538827334" width="106.289108" height="11.6463579"></rect>
        <filter x="-27.9%" y="-270.2%" width="155.8%" height="640.5%" filterUnits="objectBoundingBox" id="filter-9">
            <feGaussianBlur stdDeviation="7.34375" in="SourceGraphic"></feGaussianBlur>
        </filter>
    </defs>
    <g id="食之契约H5_CV结束_官方" stroke="none" stroke-width="1" fill="none" fill-rule="evenodd" transform="translate(-171.000000, -432.000000)">
        <g id="Group-Copy" transform="translate(174.000000, 434.000000)">
            <g id="Rectangle-23">
                <use fill="black" fill-opacity="1" filter="url(#filter-3)" xlink:href="#path-2"></use>
                <use fill="url(#linearGradient-1)" fill-rule="evenodd" xlink:href="#path-2"></use>
                <path stroke="#5F1616" stroke-width="0.5" d="M5.81500616,0.535322772 C3.26830539,0.623973564 1.23170107,2.71719075 1.23320328,5.28514656 L1.249823,28.7500068 L108.925926,28.752924 C108.927315,28.7529239 108.927315,28.7529239 108.928705,28.7529232 C111.552057,28.7513886 113.67746,26.6234975 113.675925,24.0001762 L113.659305,0.535322772 L5.81500616,0.535322772 Z"></path>
            </g>
            <g id="Rectangle-23">
                <use fill="url(#linearGradient-4)" fill-rule="evenodd" xlink:href="#path-5"></use>
                <use fill="black" fill-opacity="1" filter="url(#filter-6)" xlink:href="#path-5"></use>
            </g>
            <g id="Oval-3" transform="translate(4.777778, 14.037037)">
                <mask id="mask-8" fill="white">
                    <use xlink:href="#path-7"></use>
                </mask>
                <g id="Mask"></g>
                <ellipse fill="#FFA10A" opacity="0.47435462" filter="url(#filter-9)" mask="url(#mask-8)" cx="54.5808934" cy="0.538827334" rx="39.4993308" ry="4.07622525"></ellipse>
            </g>
            <path d="M55.168,14.224 C55.168,14.2773336 55.0426679,14.3599994 54.792,14.472 C54.5413321,14.5840006 54.3173343,14.7386657 54.12,14.936 C53.9226657,15.1333343 53.7120011,15.4666643 53.488,15.936 C53.4346664,16.0746674 53.3466673,16.144 53.224,16.144 C53.1013327,16.144 52.9413343,16.0853339 52.744,15.968 C52.5466657,15.8506661 52.1546696,15.5573357 51.568,15.088 C50.9813304,14.6186643 50.4426691,14.0400034 49.952,13.352 C49.4613309,12.6639966 49.0666682,11.9280039 48.768,11.144 C48.4693318,10.3599961 48.2666672,9.69600272 48.16,9.152 C48.0533328,8.60799728 48,8.28000056 48,8.168 C48,8.05599944 48.0479995,8 48.144,8 C48.2933341,8 48.5813312,8.06133272 49.008,8.184 C49.4346688,8.30666728 49.648,8.43199936 49.648,8.56 C49.648,8.63466704 49.5840006,8.70399968 49.456,8.768 C49.114665,8.94933424 48.944,9.10399936 48.944,9.232 C48.944,9.47733456 49.1093317,9.90133032 49.44,10.504 C49.7706683,11.1066697 50.2239971,11.6559975 50.8,12.152 C51.3760029,12.6480025 52.0133298,13.058665 52.712,13.384 C53.4106702,13.709335 54.1279963,13.9466659 54.864,14.096 C55.0666677,14.1386669 55.168,14.1813331 55.168,14.224 Z M42.32,14.928 C41.9359981,15.2266682 41.4986691,15.5199986 41.008,15.808 C40.5173309,16.0960014 40.2133339,16.24 40.096,16.24 C40.0426664,16.24 40.016,16.2133336 40.016,16.16 C40.016,16.1066664 40.0906659,16.0213339 40.24,15.904 C41.1786714,15.1573296 42.0399961,14.1226733 42.824,12.8 C43.6080039,11.4773267 44.1759982,10.0800074 44.528,8.608 C45.1573365,8.81066768 45.6986644,9.02399888 46.152,9.248 C46.6053356,9.47200112 46.8799995,9.6239996 46.976,9.704 C47.0720005,9.7840004 47.12,9.86133296 47.12,9.936 C47.12,10.010667 47.0213343,10.0586666 46.824,10.08 C46.6266657,10.1013334 46.4746672,10.1599995 46.368,10.256 C46.2613328,10.3520005 46.1386674,10.5173322 46,10.752 C45.1573291,12.2666742 44.0000074,13.6106608 42.528,14.784 L48.896,14.784 C49.2266683,14.1973304 49.4666659,13.904 49.616,13.904 C49.690667,13.904 49.9173314,14.0399986 50.296,14.312 C50.6746686,14.5840014 51.0053319,14.8426654 51.288,15.088 C51.5706681,15.3333346 51.712,15.4986662 51.712,15.584 C51.712,15.7013339 51.5306685,15.8133328 51.168,15.92 C51.168,17.0400056 51.0773342,18.1839942 50.896,19.352 C50.7146658,20.5200058 50.5253343,21.2879982 50.328,21.656 C50.1306657,22.0240018 49.8213354,22.3199989 49.4,22.544 C48.9786646,22.7680011 48.4906694,22.88 47.936,22.88 C47.7333323,22.88 47.5920004,22.8453337 47.512,22.776 C47.4319996,22.7066663 47.3866667,22.5866675 47.376,22.416 C47.3439998,21.7333299 46.8586714,21.296001 45.92,21.104 C45.7386658,21.0613331 45.648,21.010667 45.648,20.952 C45.648,20.893333 45.818665,20.8773332 46.16,20.904 C46.501335,20.9306668 46.8639981,20.944 47.248,20.944 C47.6320019,20.944 47.927999,20.8986671 48.136,20.808 C48.344001,20.7173329 48.5013328,20.5466679 48.608,20.296 C48.7146672,20.0453321 48.8239994,19.3600056 48.936,18.24 C49.0480006,17.1199944 49.0933334,16.1440042 49.072,15.312 L46.672,15.312 C46.5439994,15.4400006 46.4533336,15.6693317 46.4,16 C46.1866656,17.408007 45.909335,18.4586632 45.568,19.152 C45.226665,19.8453368 44.7626696,20.4186644 44.176,20.872 C43.5893304,21.3253356 42.800005,21.7466647 41.808,22.136 C40.815995,22.5253353 40.2346675,22.72 40.064,22.72 C40.0213331,22.72 40,22.7093334 40,22.688 C40,22.6346664 40.1066656,22.5493339 40.32,22.432 C41.3653386,21.8666638 42.1733305,21.2960029 42.744,20.72 C43.3146695,20.1439971 43.7306654,19.4373375 43.992,18.6 C44.2533346,17.7626625 44.3946666,16.6666734 44.416,15.312 L43.2,15.312 C42.9866656,15.312 42.7946675,15.3706661 42.624,15.488 L42.32,14.928 Z M65.008,10.544 C64.7626654,10.4053326 64.6346667,10.2346677 64.624,10.032 C64.6026666,9.57333104 64.5413338,9.24800096 64.44,9.056 C64.3386662,8.86399904 64.1706678,8.68533416 63.936,8.52 C63.7013322,8.35466584 63.584,8.25600016 63.584,8.224 C63.584,8.15999968 63.8933302,8.128 64.512,8.128 C65.1306698,8.128 65.602665,8.18933272 65.928,8.312 C66.253335,8.43466728 66.4986658,8.62399872 66.664,8.88 C66.8293342,9.13600128 66.912,9.35466576 66.912,9.536 C66.912,9.71733424 66.8373341,9.90399904 66.688,10.096 C66.5386659,10.288001 66.3360013,10.4373328 66.08,10.544 L69.68,10.544 C69.754667,10.3946659 69.9039989,10.1360018 70.128,9.768 C70.3520011,9.39999816 70.4906664,9.19466688 70.544,9.152 C70.5973336,9.10933312 70.661333,9.088 70.736,9.088 C70.810667,9.088 70.9653322,9.17066584 71.2,9.336 C71.4346678,9.50133416 71.7093318,9.717332 72.024,9.984 C72.3386682,10.250668 72.5546661,10.4479994 72.672,10.576 C72.7893339,10.7040006 72.848,10.805333 72.848,10.88 C72.848,11.0080006 72.7306678,11.072 72.496,11.072 L59.04,11.072 C58.8266656,11.072 58.6346675,11.1306661 58.464,11.248 L57.936,10.496 C58.1920013,10.5280002 58.4586653,10.544 58.736,10.544 L65.008,10.544 Z M62.496,12.08 L67.824,12.08 C67.9840008,11.8453322 68.1119995,11.6266677 68.208,11.424 C68.3040005,11.2213323 68.4213326,11.12 68.56,11.12 C68.6986674,11.12 68.9733313,11.2426654 69.384,11.488 C69.7946687,11.7333346 70.0906658,11.9146661 70.272,12.032 C70.4533342,12.1493339 70.544,12.2826659 70.544,12.432 C70.544,12.6560011 70.3893349,12.805333 70.08,12.88 L70.08,13.904 C70.08,14.2133349 70.0853333,14.4159995 70.096,14.512 C70.1066667,14.6080005 70.112,14.685333 70.112,14.744 C70.112,14.802667 70.082667,14.8586664 70.024,14.912 C69.965333,14.9653336 69.7600018,15.029333 69.408,15.104 C69.0559982,15.178667 68.6720021,15.216 68.256,15.216 C68.1279994,15.216 68.064,15.120001 68.064,14.928 L68.064,14.912 L62.464,14.912 L62.464,15.024 C62.464,15.1413339 62.4186671,15.229333 62.328,15.288 C62.2373329,15.346667 62.0560014,15.4026664 61.784,15.456 C61.5119986,15.5093336 61.2586678,15.536 61.024,15.536 C60.7893322,15.536 60.6560002,15.5280001 60.624,15.512 C60.5919998,15.4959999 60.5893332,15.3786678 60.616,15.16 C60.6426668,14.9413322 60.656,14.7146678 60.656,14.48 L60.656,12.4 C60.656,11.9626645 60.6453334,11.6586675 60.624,11.488 C61.1680027,11.5840005 61.7919965,11.7813318 62.496,12.08 Z M68.064,14.384 L68.064,12.608 L62.688,12.608 C62.6559998,12.7360006 62.5813339,12.8213331 62.464,12.864 L62.464,14.384 L68.064,14.384 Z M66.304,17.536 L67.744,16.448 L60.624,16.448 C60.4106656,16.448 60.2186675,16.5066661 60.048,16.624 L59.52,15.872 C59.7760013,15.9040002 60.0426653,15.92 60.32,15.92 L68.032,15.92 C68.3840018,15.5359981 68.5919997,15.3226669 68.656,15.28 C68.7200003,15.2373331 68.8053328,15.216 68.912,15.216 C69.1360011,15.216 69.5253306,15.4559976 70.08,15.936 C70.6346694,16.4160024 70.912,16.7333326 70.912,16.888 C70.912,17.0426674 70.8213342,17.12 70.64,17.12 C70.5866664,17.12 70.5146671,17.1120001 70.424,17.096 C70.3333329,17.0799999 70.192001,17.072 70,17.072 C69.2213294,17.072 68.16534,17.2693314 66.832,17.664 C67.1626683,17.6960002 67.328,17.7866659 67.328,17.936 C67.328,18.0320005 67.2373342,18.1119997 67.056,18.176 L67.056,18.688 L69.968,18.688 C70.3840021,17.9733298 70.6239997,17.5706671 70.688,17.48 C70.7520003,17.3893329 70.8266662,17.344 70.912,17.344 C71.0720008,17.344 71.4586636,17.5839976 72.072,18.064 C72.6853364,18.5440024 72.992,18.8559993 72.992,19 C72.992,19.1440007 72.8853344,19.216 72.672,19.216 L67.056,19.216 L67.056,21.264 C67.056,22.0960042 66.7760028,22.6239989 66.216,22.848 C65.6559972,23.0720011 65.109336,23.184 64.576,23.184 C64.3199987,23.184 64.1706669,23.0826677 64.128,22.88 C64.0319995,22.3786642 63.8533346,22.0453342 63.592,21.88 C63.3306654,21.7146658 62.9280027,21.6000003 62.384,21.536 C62.2559994,21.5253333 62.192,21.4933336 62.192,21.44 C62.192,21.3866664 62.2559994,21.36 62.384,21.36 L63.504,21.392 C63.9520022,21.392 64.2826656,21.3653336 64.496,21.312 C64.7093344,21.2586664 64.8506663,21.1760006 64.92,21.064 C64.9893337,20.9519994 65.024,20.7840011 65.024,20.56 L65.024,19.216 L58.848,19.216 C58.6346656,19.216 58.4426675,19.2746661 58.272,19.392 L57.712,18.64 C57.9680013,18.6720002 58.2346653,18.688 58.512,18.688 L65.024,18.688 C65.024,18.1759974 65.0133334,17.7173354 64.992,17.312 C65.3973354,17.3760003 65.8346643,17.4506662 66.304,17.536 Z" id="分享" stroke="#5F1616" fill="#5F1616"></path>
            <path d="M55.168,14.224 C55.168,14.2773336 55.0426679,14.3599994 54.792,14.472 C54.5413321,14.5840006 54.3173343,14.7386657 54.12,14.936 C53.9226657,15.1333343 53.7120011,15.4666643 53.488,15.936 C53.4346664,16.0746674 53.3466673,16.144 53.224,16.144 C53.1013327,16.144 52.9413343,16.0853339 52.744,15.968 C52.5466657,15.8506661 52.1546696,15.5573357 51.568,15.088 C50.9813304,14.6186643 50.4426691,14.0400034 49.952,13.352 C49.4613309,12.6639966 49.0666682,11.9280039 48.768,11.144 C48.4693318,10.3599961 48.2666672,9.69600272 48.16,9.152 C48.0533328,8.60799728 48,8.28000056 48,8.168 C48,8.05599944 48.0479995,8 48.144,8 C48.2933341,8 48.5813312,8.06133272 49.008,8.184 C49.4346688,8.30666728 49.648,8.43199936 49.648,8.56 C49.648,8.63466704 49.5840006,8.70399968 49.456,8.768 C49.114665,8.94933424 48.944,9.10399936 48.944,9.232 C48.944,9.47733456 49.1093317,9.90133032 49.44,10.504 C49.7706683,11.1066697 50.2239971,11.6559975 50.8,12.152 C51.3760029,12.6480025 52.0133298,13.058665 52.712,13.384 C53.4106702,13.709335 54.1279963,13.9466659 54.864,14.096 C55.0666677,14.1386669 55.168,14.1813331 55.168,14.224 Z M42.32,14.928 C41.9359981,15.2266682 41.4986691,15.5199986 41.008,15.808 C40.5173309,16.0960014 40.2133339,16.24 40.096,16.24 C40.0426664,16.24 40.016,16.2133336 40.016,16.16 C40.016,16.1066664 40.0906659,16.0213339 40.24,15.904 C41.1786714,15.1573296 42.0399961,14.1226733 42.824,12.8 C43.6080039,11.4773267 44.1759982,10.0800074 44.528,8.608 C45.1573365,8.81066768 45.6986644,9.02399888 46.152,9.248 C46.6053356,9.47200112 46.8799995,9.6239996 46.976,9.704 C47.0720005,9.7840004 47.12,9.86133296 47.12,9.936 C47.12,10.010667 47.0213343,10.0586666 46.824,10.08 C46.6266657,10.1013334 46.4746672,10.1599995 46.368,10.256 C46.2613328,10.3520005 46.1386674,10.5173322 46,10.752 C45.1573291,12.2666742 44.0000074,13.6106608 42.528,14.784 L48.896,14.784 C49.2266683,14.1973304 49.4666659,13.904 49.616,13.904 C49.690667,13.904 49.9173314,14.0399986 50.296,14.312 C50.6746686,14.5840014 51.0053319,14.8426654 51.288,15.088 C51.5706681,15.3333346 51.712,15.4986662 51.712,15.584 C51.712,15.7013339 51.5306685,15.8133328 51.168,15.92 C51.168,17.0400056 51.0773342,18.1839942 50.896,19.352 C50.7146658,20.5200058 50.5253343,21.2879982 50.328,21.656 C50.1306657,22.0240018 49.8213354,22.3199989 49.4,22.544 C48.9786646,22.7680011 48.4906694,22.88 47.936,22.88 C47.7333323,22.88 47.5920004,22.8453337 47.512,22.776 C47.4319996,22.7066663 47.3866667,22.5866675 47.376,22.416 C47.3439998,21.7333299 46.8586714,21.296001 45.92,21.104 C45.7386658,21.0613331 45.648,21.010667 45.648,20.952 C45.648,20.893333 45.818665,20.8773332 46.16,20.904 C46.501335,20.9306668 46.8639981,20.944 47.248,20.944 C47.6320019,20.944 47.927999,20.8986671 48.136,20.808 C48.344001,20.7173329 48.5013328,20.5466679 48.608,20.296 C48.7146672,20.0453321 48.8239994,19.3600056 48.936,18.24 C49.0480006,17.1199944 49.0933334,16.1440042 49.072,15.312 L46.672,15.312 C46.5439994,15.4400006 46.4533336,15.6693317 46.4,16 C46.1866656,17.408007 45.909335,18.4586632 45.568,19.152 C45.226665,19.8453368 44.7626696,20.4186644 44.176,20.872 C43.5893304,21.3253356 42.800005,21.7466647 41.808,22.136 C40.815995,22.5253353 40.2346675,22.72 40.064,22.72 C40.0213331,22.72 40,22.7093334 40,22.688 C40,22.6346664 40.1066656,22.5493339 40.32,22.432 C41.3653386,21.8666638 42.1733305,21.2960029 42.744,20.72 C43.3146695,20.1439971 43.7306654,19.4373375 43.992,18.6 C44.2533346,17.7626625 44.3946666,16.6666734 44.416,15.312 L43.2,15.312 C42.9866656,15.312 42.7946675,15.3706661 42.624,15.488 L42.32,14.928 Z M65.008,10.544 C64.7626654,10.4053326 64.6346667,10.2346677 64.624,10.032 C64.6026666,9.57333104 64.5413338,9.24800096 64.44,9.056 C64.3386662,8.86399904 64.1706678,8.68533416 63.936,8.52 C63.7013322,8.35466584 63.584,8.25600016 63.584,8.224 C63.584,8.15999968 63.8933302,8.128 64.512,8.128 C65.1306698,8.128 65.602665,8.18933272 65.928,8.312 C66.253335,8.43466728 66.4986658,8.62399872 66.664,8.88 C66.8293342,9.13600128 66.912,9.35466576 66.912,9.536 C66.912,9.71733424 66.8373341,9.90399904 66.688,10.096 C66.5386659,10.288001 66.3360013,10.4373328 66.08,10.544 L69.68,10.544 C69.754667,10.3946659 69.9039989,10.1360018 70.128,9.768 C70.3520011,9.39999816 70.4906664,9.19466688 70.544,9.152 C70.5973336,9.10933312 70.661333,9.088 70.736,9.088 C70.810667,9.088 70.9653322,9.17066584 71.2,9.336 C71.4346678,9.50133416 71.7093318,9.717332 72.024,9.984 C72.3386682,10.250668 72.5546661,10.4479994 72.672,10.576 C72.7893339,10.7040006 72.848,10.805333 72.848,10.88 C72.848,11.0080006 72.7306678,11.072 72.496,11.072 L59.04,11.072 C58.8266656,11.072 58.6346675,11.1306661 58.464,11.248 L57.936,10.496 C58.1920013,10.5280002 58.4586653,10.544 58.736,10.544 L65.008,10.544 Z M62.496,12.08 L67.824,12.08 C67.9840008,11.8453322 68.1119995,11.6266677 68.208,11.424 C68.3040005,11.2213323 68.4213326,11.12 68.56,11.12 C68.6986674,11.12 68.9733313,11.2426654 69.384,11.488 C69.7946687,11.7333346 70.0906658,11.9146661 70.272,12.032 C70.4533342,12.1493339 70.544,12.2826659 70.544,12.432 C70.544,12.6560011 70.3893349,12.805333 70.08,12.88 L70.08,13.904 C70.08,14.2133349 70.0853333,14.4159995 70.096,14.512 C70.1066667,14.6080005 70.112,14.685333 70.112,14.744 C70.112,14.802667 70.082667,14.8586664 70.024,14.912 C69.965333,14.9653336 69.7600018,15.029333 69.408,15.104 C69.0559982,15.178667 68.6720021,15.216 68.256,15.216 C68.1279994,15.216 68.064,15.120001 68.064,14.928 L68.064,14.912 L62.464,14.912 L62.464,15.024 C62.464,15.1413339 62.4186671,15.229333 62.328,15.288 C62.2373329,15.346667 62.0560014,15.4026664 61.784,15.456 C61.5119986,15.5093336 61.2586678,15.536 61.024,15.536 C60.7893322,15.536 60.6560002,15.5280001 60.624,15.512 C60.5919998,15.4959999 60.5893332,15.3786678 60.616,15.16 C60.6426668,14.9413322 60.656,14.7146678 60.656,14.48 L60.656,12.4 C60.656,11.9626645 60.6453334,11.6586675 60.624,11.488 C61.1680027,11.5840005 61.7919965,11.7813318 62.496,12.08 Z M68.064,14.384 L68.064,12.608 L62.688,12.608 C62.6559998,12.7360006 62.5813339,12.8213331 62.464,12.864 L62.464,14.384 L68.064,14.384 Z M66.304,17.536 L67.744,16.448 L60.624,16.448 C60.4106656,16.448 60.2186675,16.5066661 60.048,16.624 L59.52,15.872 C59.7760013,15.9040002 60.0426653,15.92 60.32,15.92 L68.032,15.92 C68.3840018,15.5359981 68.5919997,15.3226669 68.656,15.28 C68.7200003,15.2373331 68.8053328,15.216 68.912,15.216 C69.1360011,15.216 69.5253306,15.4559976 70.08,15.936 C70.6346694,16.4160024 70.912,16.7333326 70.912,16.888 C70.912,17.0426674 70.8213342,17.12 70.64,17.12 C70.5866664,17.12 70.5146671,17.1120001 70.424,17.096 C70.3333329,17.0799999 70.192001,17.072 70,17.072 C69.2213294,17.072 68.16534,17.2693314 66.832,17.664 C67.1626683,17.6960002 67.328,17.7866659 67.328,17.936 C67.328,18.0320005 67.2373342,18.1119997 67.056,18.176 L67.056,18.688 L69.968,18.688 C70.3840021,17.9733298 70.6239997,17.5706671 70.688,17.48 C70.7520003,17.3893329 70.8266662,17.344 70.912,17.344 C71.0720008,17.344 71.4586636,17.5839976 72.072,18.064 C72.6853364,18.5440024 72.992,18.8559993 72.992,19 C72.992,19.1440007 72.8853344,19.216 72.672,19.216 L67.056,19.216 L67.056,21.264 C67.056,22.0960042 66.7760028,22.6239989 66.216,22.848 C65.6559972,23.0720011 65.109336,23.184 64.576,23.184 C64.3199987,23.184 64.1706669,23.0826677 64.128,22.88 C64.0319995,22.3786642 63.8533346,22.0453342 63.592,21.88 C63.3306654,21.7146658 62.9280027,21.6000003 62.384,21.536 C62.2559994,21.5253333 62.192,21.4933336 62.192,21.44 C62.192,21.3866664 62.2559994,21.36 62.384,21.36 L63.504,21.392 C63.9520022,21.392 64.2826656,21.3653336 64.496,21.312 C64.7093344,21.2586664 64.8506663,21.1760006 64.92,21.064 C64.9893337,20.9519994 65.024,20.7840011 65.024,20.56 L65.024,19.216 L58.848,19.216 C58.6346656,19.216 58.4426675,19.2746661 58.272,19.392 L57.712,18.64 C57.9680013,18.6720002 58.2346653,18.688 58.512,18.688 L65.024,18.688 C65.024,18.1759974 65.0133334,17.7173354 64.992,17.312 C65.3973354,17.3760003 65.8346643,17.4506662 66.304,17.536 Z" id="分享" fill="#FFFFFF"></path>
        </g>
    </g>
</svg>